<?xml version="1.0" encoding="UTF-8" standalone="no"?>
<!-- Created with Inkscape (http://www.inkscape.org/) -->
<svg
   xmlns:dc="http://purl.org/dc/elements/1.1/"
   xmlns:cc="http://creativecommons.org/ns#"
   xmlns:rdf="http://www.w3.org/1999/02/22-rdf-syntax-ns#"
   xmlns:svg="http://www.w3.org/2000/svg"
   xmlns="http://www.w3.org/2000/svg"
   xmlns:xlink="http://www.w3.org/1999/xlink"
   xmlns:sodipodi="http://sodipodi.sourceforge.net/DTD/sodipodi-0.dtd"
   xmlns:inkscape="http://www.inkscape.org/namespaces/inkscape"
   width="852.48529"
   height="545.31708"
   id="svg2"
   sodipodi:version="0.32"
   inkscape:version="0.46"
   sodipodi:docname="Flag_of_Freedonia.svg"
   inkscape:output_extension="org.inkscape.output.svg.inkscape"
   version="1.0">
  <defs
     id="defs4">
    <marker
       inkscape:stockid="Arrow2Lstart"
       orient="auto"
       refY="0"
       refX="0"
       id="Arrow2Lstart"
       style="overflow:visible">
      <path
         id="path3191"
         style="font-size:12px;fill-rule:evenodd;stroke-width:0.625;stroke-linejoin:round"
         d="M 8.7185878,4.0337352 L -2.2072895,0.016013256 L 8.7185884,-4.0017078 C 6.97309,-1.6296469 6.9831476,1.6157441 8.7185878,4.0337352 z"
         transform="matrix(1.1,0,0,1.1,1.1,0)" />
    </marker>
    <inkscape:perspective
       sodipodi:type="inkscape:persp3d"
       inkscape:vp_x="0 : 526.18109 : 1"
       inkscape:vp_y="0 : 1000 : 0"
       inkscape:vp_z="744.09448 : 526.18109 : 1"
       inkscape:persp3d-origin="372.04724 : 350.78739 : 1"
       id="perspective10" />
    <inkscape:perspective
       id="perspective2390"
       inkscape:persp3d-origin="372.04724 : 350.78739 : 1"
       inkscape:vp_z="744.09448 : 526.18109 : 1"
       inkscape:vp_y="0 : 1000 : 0"
       inkscape:vp_x="0 : 526.18109 : 1"
       sodipodi:type="inkscape:persp3d" />
  </defs>
  <sodipodi:namedview
     id="base"
     pagecolor="#ffffff"
     bordercolor="#666666"
     borderopacity="1.0"
     inkscape:pageopacity="0.0"
     inkscape:pageshadow="2"
     inkscape:zoom="0.7"
     inkscape:cx="410.46593"
     inkscape:cy="314.57353"
     inkscape:document-units="px"
     inkscape:current-layer="layer1"
     showgrid="false"
     inkscape:window-width="1023"
     inkscape:window-height="715"
     inkscape:window-x="0"
     inkscape:window-y="25" />
  <metadata
     id="metadata7">
    <rdf:RDF>
      <cc:Work
         rdf:about="">
        <dc:format>image/svg+xml</dc:format>
        <dc:type
           rdf:resource="http://purl.org/dc/dcmitype/StillImage" />
      </cc:Work>
    </rdf:RDF>
  </metadata>
  <g
     inkscape:label="Livello 1"
     inkscape:groupmode="layer"
     id="layer1"
     transform="translate(41.659558,-430.78304)">
    <text
       xml:space="preserve"
       style="font-size:144px;font-style:normal;font-variant:normal;font-weight:normal;font-stretch:normal;text-align:start;line-height:100%;writing-mode:lr-tb;text-anchor:start;fill:#000000;fill-opacity:1;stroke:none;stroke-width:1px;stroke-linecap:butt;stroke-linejoin:miter;stroke-opacity:1;font-family:Bitstream Vera Serif;-inkscape-font-specification:Bitstream Vera Serif"
       x="26.142876"
       y="761.23529"
       id="text3301"
       sodipodi:linespacing="100%"><tspan
         sodipodi:role="line"
         id="tspan3303"
         x="26.142876"
         y="761.23529" /></text>
    <g
       id="g3221"
       transform="translate(1.4263672e-5,-6.1816406e-6)">
      <rect
         y="434.13116"
         x="-41.088158"
         height="540.64117"
         width="850.33234"
         id="rect2396"
         style="opacity:1;fill:#005100;fill-opacity:1;stroke:none;stroke-width:3.51763009999999990;stroke-linecap:round;stroke-miterlimit:4;stroke-dasharray:none;stroke-opacity:1" />
      <path
         id="path3197"
         d="M -4.4589712,432.54205 L 809.06669,938.69618 L 809.06669,974.34114 L 779.71312,974.34114 L -39.900572,472.85431 L -39.900572,432.54205 L -4.4589712,432.54205 z"
         style="fill:#f7d800;fill-opacity:1;stroke:#000000;stroke-width:3.51799989;stroke-linecap:round;stroke-miterlimit:4;stroke-opacity:1" />
      <path
         id="path3199"
         d="M -39.900572,432.54205 L 809.06669,432.54205 L 809.06669,974.34114 L -39.900572,974.34114 L -39.900572,432.54205 z"
         style="fill:none;fill-opacity:1;stroke:#000000;stroke-width:3.51799989;stroke-linecap:round;stroke-miterlimit:4;stroke-opacity:1" />
      <path
         id="rect2402"
         d="M 773.87635,432.54205 L -39.900572,938.59767 L -39.900572,974.34114 L -7.6856269,974.34114 L 809.06669,471.52821 L 809.06669,432.54205 L 773.87635,432.54205 z"
         style="fill:#fcd800;fill-opacity:1;stroke:#000000;stroke-width:3.51799989;stroke-linecap:round;stroke-miterlimit:4;stroke-opacity:1" />
      <g
         transform="translate(-140,-455.71429)"
         id="g3285">
        <path
           sodipodi:type="arc"
           style="fill:#0000ff;fill-opacity:1;stroke:#050400;stroke-width:2;stroke-linecap:round;stroke-miterlimit:4;stroke-dasharray:none;stroke-opacity:1"
           id="path2387"
           sodipodi:cx="433.57144"
           sodipodi:cy="272.01596"
           sodipodi:rx="69.285713"
           sodipodi:ry="67.85714"
           d="M 502.85715,272.01596 A 69.285713,67.85714 0 1 1 364.28573,272.01596 A 69.285713,67.85714 0 1 1 502.85715,272.01596 z"
           transform="matrix(1.2576494,0,0,1.2576494,-25.104187,816.1613)" />
        <path
           id="path3165"
           style="fill:#d7cadd;fill-opacity:1;stroke:#050400;stroke-width:2;stroke-linecap:round;stroke-miterlimit:4;stroke-opacity:1"
           d="M 527.31553,1158.262 C 527.31553,1204.3912 524.11733,1241.8294 520.17668,1241.8294 C 516.23603,1241.8294 513.03782,1204.3912 513.03782,1158.262 C 513.03782,1112.1328 516.23603,1074.6946 520.17668,1074.6946 C 524.11733,1074.6946 527.31553,1112.1328 527.31553,1158.262 z M 520.1767,1080.4049 L 520.1767,1237.5477 M 520.17668,1165.4009 C 474.04746,1165.4009 436.60925,1162.2027 436.60925,1158.262 C 436.60925,1154.3214 474.04746,1151.1231 520.17668,1151.1231 C 566.3059,1151.1231 603.74411,1154.3214 603.74411,1158.262 C 603.74411,1162.2027 566.3059,1165.4009 520.17668,1165.4009 z M 598.74812,1158.9763 L 441.60526,1158.9763 M 598.74812,1158.9763 L 441.60526,1158.9763 M 525.22462,1153.214 C 557.84291,1185.8323 582.05425,1214.5666 579.26779,1217.3531 C 576.48133,1220.1395 547.74704,1195.9282 515.12875,1163.3099 C 482.51046,1130.6916 458.29913,1101.9573 461.08559,1099.1709 C 463.87204,1096.3844 492.60634,1120.5958 525.22462,1153.214 z M 525.22461,1163.3099 C 492.60632,1195.9282 463.87203,1220.1396 461.08557,1217.3531 C 458.29911,1214.5666 482.51045,1185.8323 515.12874,1153.2141 C 547.74703,1120.5958 576.48132,1096.3844 579.26778,1099.1709 C 582.05424,1101.9574 557.8429,1130.6916 525.22461,1163.3099 z M 576.24013,1103.2086 L 465.12335,1214.3254 M 465.12336,1103.2086 L 576.24014,1214.3254 M 576.24013,1103.2086 L 465.12335,1214.3254" />
      </g>
      <g
         transform="translate(0,-4.6391248)"
         id="g2413">
        <g
           id="g2400"
           transform="translate(-7.7047037,2.8571505)">
          <path
             inkscape:tile-y0="52.135378"
             inkscape:tile-x0="281.67806"
             inkscape:tile-h="62.023438"
             inkscape:tile-w="65.215302"
             inkscape:tile-cy="83.147097"
             inkscape:tile-cx="314.28571"
             transform="translate(-19.571413,457.07648)"
             d="M 290,88.444527 L 279.92368,68.027675 L 257.39235,64.753682 L 273.69617,48.861379 L 269.84736,26.421089 L 290,37.015957 L 310.15264,26.421088 L 306.30383,48.86138 L 322.60765,64.753681 L 300.07632,68.027676 L 290,88.444527 z"
             inkscape:randomized="0"
             inkscape:rounded="0"
             inkscape:flatsided="false"
             sodipodi:arg2="2.1991149"
             sodipodi:arg1="1.5707963"
             sodipodi:r2="17.142857"
             sodipodi:r1="34.285713"
             sodipodi:cy="54.158813"
             sodipodi:cx="290"
             sodipodi:sides="5"
             id="path3289"
             style="opacity:0.85772358;fill:#d7cadd;fill-opacity:1;stroke:#050400;stroke-width:2;stroke-linecap:round;stroke-miterlimit:4;stroke-dasharray:none;stroke-opacity:1"
             sodipodi:type="star" />
          <use
             height="544.15881"
             width="856.88037"
             id="use3297"
             transform="translate(121.85918,7.6293945e-6)"
             xlink:href="#path3289"
             inkscape:tiled-clone-of="#path3289"
             y="0"
             x="0" />
          <use
             height="544.15881"
             width="856.88037"
             id="use3299"
             transform="translate(243.71835,0)"
             xlink:href="#path3289"
             inkscape:tiled-clone-of="#path3289"
             y="0"
             x="0" />
        </g>
        <g
           transform="translate(-7.7047037,384.28571)"
           id="g2405">
          <path
             sodipodi:type="star"
             style="opacity:0.85772358;fill:#d7cadd;fill-opacity:1;stroke:#050400;stroke-width:2;stroke-linecap:round;stroke-miterlimit:4;stroke-dasharray:none;stroke-opacity:1"
             id="path2407"
             sodipodi:sides="5"
             sodipodi:cx="290"
             sodipodi:cy="54.158813"
             sodipodi:r1="34.285713"
             sodipodi:r2="17.142857"
             sodipodi:arg1="1.5707963"
             sodipodi:arg2="2.1991149"
             inkscape:flatsided="false"
             inkscape:rounded="0"
             inkscape:randomized="0"
             d="M 290,88.444527 L 279.92368,68.027675 L 257.39235,64.753682 L 273.69617,48.861379 L 269.84736,26.421089 L 290,37.015957 L 310.15264,26.421088 L 306.30383,48.86138 L 322.60765,64.753681 L 300.07632,68.027676 L 290,88.444527 z"
             transform="translate(-19.571413,457.07648)"
             inkscape:tile-cx="314.28571"
             inkscape:tile-cy="83.147097"
             inkscape:tile-w="65.215302"
             inkscape:tile-h="62.023438"
             inkscape:tile-x0="281.67806"
             inkscape:tile-y0="52.135378" />
          <use
             x="0"
             y="0"
             inkscape:tiled-clone-of="#path3289"
             xlink:href="#path3289"
             transform="translate(121.85918,7.6293945e-6)"
             id="use2409"
             width="856.88037"
             height="544.15881" />
          <use
             x="0"
             y="0"
             inkscape:tiled-clone-of="#path3289"
             xlink:href="#path3289"
             transform="translate(243.71835,0)"
             id="use2411"
             width="856.88037"
             height="544.15881" />
        </g>
      </g>
      <path
         d="M 7.894338,743.73126 L 7.894338,737.20072 L 14.428277,737.20072 L 14.428277,669.68248 L 7.894338,669.68248 L 7.894338,663.15194 L 53.426653,663.15194 L 53.426653,682.14987 L 48.740006,682.14987 L 48.740006,670.54602 L 27.667199,670.54602 L 27.667199,696.39832 L 40.632449,696.39832 L 40.632449,686.14376 L 45.319096,686.14376 L 45.319096,713.99301 L 40.632449,713.99301 L 40.632449,703.73844 L 27.667199,703.73844 L 27.667199,737.20072 L 35.706338,737.20072 L 35.706338,743.73126 L 7.894338,743.73126 z M 91.604008,704.3861 C 93.633708,704.85389 95.344168,705.91533 96.73538,707.57042 C 98.12651,709.22557 99.33523,711.6183 100.36155,714.74861 L 107.81913,737.20072 L 113.05312,737.20072 L 113.05312,743.73126 L 96.25645,743.73126 L 88.114683,719.39015 C 86.541032,714.35285 85.201177,711.14155 84.095113,709.75625 C 82.98899,708.37102 81.455284,707.67839 79.493989,707.67835 L 77.407233,707.67835 L 77.407233,737.20072 L 83.975381,737.20072 L 83.975381,743.73126 L 57.702791,743.73126 L 57.702791,737.20072 L 64.236729,737.20072 L 64.236729,669.68248 L 57.702791,669.68248 L 57.702791,663.15194 L 86.848946,663.15194 C 92.778488,663.15202 97.3568,665.03202 100.58391,668.79195 C 103.81092,672.55204 105.42444,677.88621 105.42449,684.79447 C 105.42444,690.40756 104.27844,694.8422 101.98648,698.09843 C 99.69442,701.35474 96.23361,703.45063 91.604008,704.3861 L 91.604008,704.3861 z M 77.407233,701.20178 L 81.888626,701.20178 C 85.081445,701.20183 87.538796,699.83456 89.260687,697.09996 C 90.982508,694.36545 91.843438,690.46152 91.843478,685.38816 C 91.843438,680.31492 90.982508,676.42897 89.260687,673.73034 C 87.538796,671.03184 85.081445,669.68255 81.888626,669.68248 L 77.407233,669.68248 L 77.407233,701.20178 z M 115.99511,743.73126 L 115.99511,737.20072 L 122.52905,737.20072 L 122.52905,669.68248 L 115.99511,669.68248 L 115.99511,663.15194 L 161.90372,663.15194 L 161.90372,682.14987 L 157.18287,682.14987 L 157.18287,670.54602 L 135.69955,670.54602 L 135.69955,696.39832 L 149.07531,696.39832 L 149.07531,686.14376 L 153.76196,686.14376 L 153.76196,713.99301 L 149.07531,713.99301 L 149.07531,703.73844 L 135.69955,703.73844 L 135.69955,736.33717 L 157.83284,736.33717 L 157.83284,724.73332 L 162.51949,724.73332 L 162.51949,743.73126 L 115.99511,743.73126 z M 169.36131,743.73126 L 169.36131,737.20072 L 175.89525,737.20072 L 175.89525,669.68248 L 169.36131,669.68248 L 169.36131,663.15194 L 215.26992,663.15194 L 215.26992,682.14987 L 210.54906,682.14987 L 210.54906,670.54602 L 189.06575,670.54602 L 189.06575,696.39832 L 202.44151,696.39832 L 202.44151,686.14376 L 207.12816,686.14376 L 207.12816,713.99301 L 202.44151,713.99301 L 202.44151,703.73844 L 189.06575,703.73844 L 189.06575,736.33717 L 211.19904,736.33717 L 211.19904,724.73332 L 215.88569,724.73332 L 215.88569,743.73126 L 169.36131,743.73126 z M 534.45067,737.14674 L 539.20573,737.14674 C 544.54233,737.14674 548.44786,734.44818 550.92235,729.05103 C 553.39677,723.65391 554.63399,715.07246 554.63404,703.30666 C 554.63399,691.61291 553.40247,683.07644 550.93946,677.69723 C 548.47637,672.31816 544.56513,669.62858 539.20573,669.6285 L 534.45067,669.6285 L 534.45067,737.14674 z M 514.74623,743.67728 L 514.74623,737.14674 L 521.28017,737.14674 L 521.28017,669.6285 L 514.74623,669.6285 L 514.74623,663.09796 L 540.9504,663.09796 C 550.11841,663.09805 557.13126,666.55222 561.989,673.46047 C 566.84663,680.36887 569.27548,690.3176 569.27553,703.30666 C 569.27548,716.36777 566.84093,726.36146 561.9719,733.28778 C 557.10275,740.21412 550.0956,743.67728 540.9504,743.67728 L 514.74623,743.67728 z M 602.69783,738.7119 C 607.05375,738.71192 610.29221,735.81545 612.41322,730.02251 C 614.53414,724.2296 615.59462,715.37829 615.59466,703.46858 C 615.59462,691.52295 614.53414,682.65366 612.41322,676.86068 C 610.29221,671.06781 607.05375,668.17136 602.69783,668.17128 C 598.36465,668.17136 595.1319,671.0948 592.99955,676.94163 C 590.86716,682.7886 589.80098,691.6309 589.801,703.46858 C 589.80098,715.27036 590.86716,724.09467 592.99955,729.94155 C 595.1319,735.78847 598.36465,738.71192 602.69783,738.7119 L 602.69783,738.7119 z M 602.69783,745.24245 C 594.09992,745.24245 587.36073,741.53641 582.48025,734.12434 C 577.59975,726.71228 575.1595,716.4937 575.1595,703.46858 C 575.1595,690.44353 577.60545,680.21596 582.49736,672.78584 C 587.38924,665.35584 594.12273,661.64081 602.69783,661.64074 C 611.29568,661.64081 618.03487,665.34685 622.91541,672.75885 C 627.79585,680.17098 630.2361,690.40754 630.23616,703.46858 C 630.2361,716.4937 627.79015,726.71228 622.89831,734.12434 C 618.00636,741.53641 611.27287,745.24245 602.69783,745.24245 L 602.69783,745.24245 z M 636.32537,743.67728 L 636.32537,737.14674 L 642.85931,737.14674 L 642.85931,669.6285 L 636.32537,669.6285 L 636.32537,663.09796 L 652.30103,663.09796 L 683.12343,720.14574 L 683.12343,669.6285 L 676.6237,669.6285 L 676.6237,663.09796 L 694.48085,663.09796 L 694.48085,669.6285 L 687.94691,669.6285 L 687.94691,743.67728 L 678.98412,743.67728 L 647.6828,685.44213 L 647.6828,737.14674 L 654.18253,737.14674 L 654.18253,743.67728 L 636.32537,743.67728 z M 700.57007,743.67728 L 700.57007,737.14674 L 707.10401,737.14674 L 707.10401,669.6285 L 700.57007,669.6285 L 700.57007,663.09796 L 726.84266,663.09796 L 726.84266,669.6285 L 720.27452,669.6285 L 720.27452,737.14674 L 726.84266,737.14674 L 726.84266,743.67728 L 700.57007,743.67728 z M 729.57939,743.67728 L 729.57939,737.14674 L 733.7529,737.14674 L 752.97841,663.09796 L 761.15439,663.09796 L 780.41412,737.14674 L 785.27181,737.14674 L 785.27181,743.67728 L 761.35964,743.67728 L 761.35964,737.14674 L 766.35417,737.14674 L 762.14646,720.68546 L 742.95515,720.68546 L 738.67901,737.14674 L 744.76823,737.14674 L 744.76823,743.67728 L 729.57939,743.67728 z M 744.6314,714.15492 L 760.47021,714.15492 L 752.60211,683.33725 L 744.6314,714.15492 z"
         style="font-size:88px;font-style:normal;font-variant:normal;font-weight:bold;font-stretch:normal;text-align:start;line-height:100%;writing-mode:lr-tb;text-anchor:start;fill:#000000;fill-opacity:1;stroke:none;stroke-width:1px;stroke-linecap:butt;stroke-linejoin:miter;stroke-opacity:1;font-family:DejaVu Serif;-inkscape-font-specification:DejaVu Serif Bold"
         id="text3305" />
    </g>
  </g>
</svg>
